<svg width="15" height="24" viewBox="0 0 15 24" fill="none" xmlns="http://www.w3.org/2000/svg">
<path d="M2.81636 0.319681L13.7249 11.2282C13.8263 11.3295 13.9068 11.4498 13.9617 11.5823C14.0166 11.7147 14.0448 11.8566 14.0448 12C14.0448 12.1434 14.0166 12.2853 13.9617 12.4177C13.9068 12.5502 13.8263 12.6705 13.7249 12.7718L2.81636 23.6803C2.61168 23.885 2.33406 24 2.04459 24C1.75511 24 1.47749 23.885 1.27281 23.6803C1.06812 23.4756 0.953125 23.198 0.953125 22.9085C0.953125 22.6191 1.06812 22.3414 1.27281 22.1368L11.4109 12L1.27281 1.86324C1.17145 1.76189 1.09106 1.64157 1.03621 1.50914C0.981356 1.37672 0.953125 1.23479 0.953125 1.09146C0.953125 0.948128 0.981356 0.806198 1.03621 0.673777C1.09106 0.541353 1.17145 0.421032 1.27281 0.319681C1.37416 0.218328 1.49448 0.137934 1.6269 0.0830841C1.75932 0.0282326 1.90125 0 2.04459 0C2.18792 0 2.32985 0.0282326 2.46227 0.0830841C2.59469 0.137934 2.71501 0.218328 2.81636 0.319681Z" fill="#051E33"/>
</svg>
