<svg width="15" height="24" viewBox="0 0 15 24" fill="none" xmlns="http://www.w3.org/2000/svg">
<path d="M12.1836 23.6803L1.2751 12.7718C1.17367 12.6705 1.09321 12.5502 1.03832 12.4177C0.983419 12.2853 0.955166 12.1434 0.955166 12C0.955166 11.8566 0.983419 11.7147 1.03832 11.5823C1.09321 11.4498 1.17367 11.3295 1.2751 11.2282L12.1836 0.319681C12.3883 0.114993 12.6659 0 12.9554 0C13.2449 0 13.5225 0.114993 13.7272 0.319681C13.9319 0.52437 14.0469 0.801987 14.0469 1.09146C14.0469 1.38093 13.9319 1.65855 13.7272 1.86324L3.58907 12L13.7272 22.1368C13.8285 22.2381 13.9089 22.3584 13.9638 22.4909C14.0186 22.6233 14.0469 22.7652 14.0469 22.9085C14.0469 23.0519 14.0186 23.1938 13.9638 23.3262C13.9089 23.4586 13.8285 23.579 13.7272 23.6803C13.6258 23.7817 13.5055 23.8621 13.3731 23.9169C13.2407 23.9718 13.0987 24 12.9554 24C12.8121 24 12.6702 23.9718 12.5377 23.9169C12.4053 23.8621 12.285 23.7817 12.1836 23.6803Z" fill="#051E33"/>
</svg>
