<svg width="16" height="16" viewBox="0 0 16 16" fill="none" xmlns="http://www.w3.org/2000/svg">
<path d="M8 1.48633C6.71442 1.48633 5.45772 1.86755 4.3888 2.58178C3.31988 3.296 2.48676 4.31117 1.99479 5.49889C1.50282 6.68661 1.37409 7.99354 1.6249 9.25442C1.8757 10.5153 2.49477 11.6735 3.40381 12.5825C4.31285 13.4916 5.47104 14.1106 6.73192 14.3614C7.99279 14.6122 9.29973 14.4835 10.4874 13.9915C11.6752 13.4996 12.6903 12.6665 13.4046 11.5975C14.1188 10.5286 14.5 9.27191 14.5 7.98633C14.4982 6.26298 13.8128 4.61074 12.5942 3.39214C11.3756 2.17355 9.72335 1.48815 8 1.48633ZM13.5 7.98633C13.5005 8.69194 13.3647 9.39101 13.1 10.0451L10.3063 8.32695C10.1875 8.25365 10.0546 8.20617 9.91625 8.18758L8.49 7.99508C8.29347 7.96945 8.09375 8.0024 7.91586 8.08978C7.73798 8.17717 7.58983 8.31511 7.49 8.48633H6.945L6.7075 7.99508C6.64184 7.85829 6.54575 7.73834 6.42659 7.64442C6.30742 7.55049 6.16834 7.48509 6.02 7.4532L5.52 7.34508L6.00875 6.48633H7.05313C7.22212 6.486 7.3883 6.443 7.53625 6.36133L8.30188 5.93883C8.36914 5.90133 8.43203 5.85647 8.48938 5.80508L10.1713 4.28383C10.3399 4.13271 10.452 3.92863 10.489 3.70525C10.526 3.48187 10.4858 3.25253 10.375 3.05508L10.3525 3.01445C11.2936 3.4607 12.0889 4.1647 12.646 5.04474C13.2031 5.92478 13.4993 6.94477 13.5 7.98633ZM8.95688 2.57008L9.5 3.54258L7.81813 5.06383L7.05313 5.48633H6.00875C5.83297 5.48607 5.66022 5.53215 5.50792 5.61993C5.35562 5.70772 5.22915 5.83409 5.14125 5.98633L4.59563 6.9382L3.96125 5.2482L4.645 3.63133C5.25022 3.1637 5.94643 2.82764 6.68905 2.64467C7.43167 2.46171 8.20432 2.43588 8.9575 2.56883L8.95688 2.57008ZM2.5 7.98633C2.49917 7.16884 2.68155 6.36156 3.03375 5.62383L3.7425 7.5157C3.80157 7.67234 3.89901 7.81165 4.0259 7.92085C4.15279 8.03005 4.30506 8.10564 4.46875 8.1407L5.80813 8.42883L6.04625 8.92383C6.12889 9.09218 6.25697 9.23408 6.416 9.33348C6.57504 9.43287 6.75871 9.48582 6.94625 9.48633H7.03875L6.58688 10.5007C6.50726 10.6793 6.48176 10.8774 6.51353 11.0703C6.5453 11.2633 6.63295 11.4427 6.76563 11.5863L6.77438 11.5951L8 12.8576L7.87875 13.4826C6.4424 13.4492 5.07598 12.8557 4.07108 11.8288C3.06618 10.802 2.50239 9.42307 2.5 7.98633ZM8.91125 13.4101L8.98188 13.047C9.0109 12.8927 9.00341 12.7338 8.96 12.5829C8.91659 12.432 8.83846 12.2934 8.73188 12.1782C8.72881 12.1754 8.72589 12.1725 8.72313 12.1695L7.5 10.9076L8.35625 8.98633L9.7825 9.17883L12.64 10.9363C12.226 11.5865 11.6803 12.1426 11.038 12.5687C10.3957 12.9948 9.6712 13.2814 8.91125 13.4101Z" fill="#E7EAEE" fill-opacity="0.6"/>
</svg>
