<svg width="48" height="48" viewBox="0 0 48 48" fill="none" xmlns="http://www.w3.org/2000/svg">
<path d="M35.1315 27.6181L29.1315 24.6181C28.9543 24.53 28.757 24.4902 28.5594 24.5027C28.3619 24.5152 28.1712 24.5796 28.0065 24.6894L25.0665 26.6488C23.5781 25.8868 22.3672 24.6759 21.6053 23.1875L23.5665 20.2494C23.6763 20.0847 23.7407 19.894 23.7532 19.6964C23.7657 19.4989 23.7259 19.3016 23.6378 19.1244L20.6378 13.1244C20.5445 12.9367 20.4006 12.7787 20.2224 12.6684C20.0441 12.5581 19.8386 12.4998 19.629 12.5C17.7393 12.5 15.9271 13.2507 14.5909 14.5869C13.2547 15.9231 12.504 17.7353 12.504 19.625C12.509 23.9001 14.2094 27.9987 17.2324 31.0216C20.2553 34.0446 24.3539 35.745 28.629 35.75C30.5187 35.75 32.331 34.9993 33.6671 33.6631C35.0033 32.3269 35.754 30.5147 35.754 28.625C35.7541 28.4159 35.6959 28.2109 35.5859 28.0331C35.4759 27.8552 35.3186 27.7115 35.1315 27.6181ZM28.629 33.5C24.9505 33.4955 21.4239 32.0323 18.8228 29.4312C16.2217 26.8301 14.7585 23.3035 14.754 19.625C14.7541 18.4484 15.1797 17.3116 15.9523 16.4242C16.7249 15.5369 17.7924 14.9589 18.9578 14.7969L21.3315 19.5444L19.3834 22.4656C19.281 22.6197 19.2182 22.7966 19.2006 22.9808C19.1829 23.1649 19.2109 23.3505 19.2821 23.5212C20.3166 25.9808 22.2732 27.9374 24.7328 28.9719C24.9035 29.0431 25.0891 29.0711 25.2733 29.0534C25.4574 29.0358 25.6343 28.973 25.7884 28.8706L28.7096 26.9225L33.4571 29.2963C33.2951 30.4616 32.7171 31.5291 31.8298 32.3017C30.9424 33.0743 29.8056 33.4999 28.629 33.5ZM24.129 5C20.8136 4.9993 17.555 5.86049 14.6728 7.49907C11.7906 9.13764 9.38392 11.4973 7.6888 14.3466C5.99367 17.1959 5.06836 20.4369 5.00364 23.7517C4.93893 27.0664 5.73703 30.3411 7.31964 33.2544L5.14089 39.7925C4.98665 40.255 4.96426 40.7513 5.07625 41.2259C5.18823 41.7004 5.43016 42.1343 5.77491 42.4791C6.11967 42.8239 6.55362 43.0658 7.02815 43.1778C7.50267 43.2898 7.999 43.2674 8.46152 43.1131L14.9996 40.9344C17.559 42.3233 20.4017 43.1094 23.311 43.2328C26.2203 43.3562 29.1193 42.8137 31.7871 41.6466C34.4549 40.4795 36.821 38.7186 38.7048 36.4982C40.5887 34.2778 41.9408 31.6565 42.6578 28.8342C43.3748 26.012 43.4379 23.0633 42.8422 20.2129C42.2466 17.3626 41.0079 14.6859 39.2207 12.3869C37.4335 10.088 35.145 8.2275 32.5296 6.94733C29.9141 5.66717 27.0409 5.00113 24.129 5ZM24.129 41C21.1626 41.0007 18.2485 40.2195 15.6803 38.735C15.5091 38.6366 15.3152 38.5843 15.1178 38.5831C14.9967 38.5838 14.8765 38.6034 14.7615 38.6413L7.75089 40.9775C7.68482 40.9995 7.61391 41.0027 7.54612 40.9867C7.47833 40.9707 7.41634 40.9362 7.36709 40.8869C7.31784 40.8377 7.28328 40.7757 7.26728 40.7079C7.25128 40.6401 7.25448 40.5692 7.27652 40.5031L9.61277 33.5C9.66331 33.3487 9.6811 33.1883 9.66493 33.0296C9.64877 32.8709 9.59903 32.7174 9.51902 32.5794C7.65762 29.3639 6.90942 25.6241 7.3905 21.94C7.87158 18.2559 9.55503 14.8336 12.1797 12.2039C14.8044 9.57425 18.2235 7.88431 21.9067 7.39624C25.5898 6.90817 29.3311 7.64927 32.5501 9.50456C35.7691 11.3598 38.2858 14.2256 39.7098 17.6572C41.1338 21.0889 41.3855 24.8945 40.4258 28.4838C39.4661 32.0731 37.3487 35.2453 34.4021 37.5084C31.4555 39.7714 27.8444 40.9988 24.129 41Z" fill="#E7EAEE"/>
</svg>
